<?xml version="1.0" encoding="utf-8"?>
<svg version="1.1" xmlns:xlink="http://www.w3.org/1999/xlink" width="64px" height="61px" xmlns="http://www.w3.org/2000/svg">
  <g transform="matrix(1 0 0 1 -202 -484 )">
    <path d="M 202 484  L 266 484  L 266 545  L 202 545  L 202 484  " fill-rule="nonzero" fill="#cccccc" stroke="none" />
    <path d="M 206 488  L 262 488  L 262 541  L 206 541  L 206 488  " fill-rule="nonzero" fill="#ffffff" stroke="none" />
    <path d="M 239.855 502.3  C 237.293 502.3  235.28 500.287  235.28 497.725  C 235.28 495.163  237.293 493.15  239.855 493.15  C 242.417 493.15  244.43 495.163  244.43 497.725  C 244.43 500.287  242.417 502.3  239.855 502.3  " fill-rule="nonzero" fill="#cccccc" stroke="none" />
    <path d="M 208 540  L 208 512.5  L 221.25 500  L 239.8 511.40625  L 250.4 507.5  L 261 511.40625  L 261 540  L 208 540  " fill-rule="nonzero" fill="#169bd5" stroke="none" />
  </g>
</svg>