<?xml version="1.0" encoding="utf-8"?>
<svg version="1.1" xmlns:xlink="http://www.w3.org/1999/xlink" width="130px" height="117px" xmlns="http://www.w3.org/2000/svg">
  <g transform="matrix(1 0 0 1 -53 -252 )">
    <path d="M 53 252  L 183 252  L 183 369  L 53 369  L 53 252  " fill-rule="nonzero" fill="#cccccc" stroke="none" />
    <path d="M 61 260  L 175 260  L 175 361  L 61 361  L 61 260  " fill-rule="nonzero" fill="#ffffff" stroke="none" />
    <path d="M 129.375 287.1  C 124.461 287.1  120.6 283.239  120.6 278.325  C 120.6 273.411  124.461 269.55  129.375 269.55  C 134.289 269.55  138.15 273.411  138.15 278.325  C 138.15 283.239  134.289 287.1  129.375 287.1  " fill-rule="nonzero" fill="#cccccc" stroke="none" />
    <path d="M 64 358  L 64 305.75  L 91 282  L 128.8 306.7  L 150.4 296.25  L 172 306.7  L 172 358  L 64 358  " fill-rule="nonzero" fill="#169bd5" stroke="none" />
  </g>
</svg>